<?xml version="1.0" encoding="UTF-8"?>
<svg version="1.1" xmlns="http://www.w3.org/2000/svg" width="512" height="512">
<path d="M0 0 C0.57411621 0.38623535 1.14823242 0.7724707 1.73974609 1.17041016 C10.31540064 6.94343966 18.02255256 13.29059526 25.43847656 20.48974609 C26.95207874 21.95365214 28.48555903 23.39370965 30.0234375 24.83203125 C67.91996407 60.82442793 86.46998075 112.50999187 87.9609375 163.9375 C88.77546605 217.66172339 66.08381388 267.73020799 29.24316406 306.03955078 C22.353148 313.05638971 14.90040062 319.16057346 7 325 C5.72382812 325.95132813 5.72382812 325.95132813 4.421875 326.921875 C-21.39317494 345.55657993 -51.46379736 357.58833006 -83 362 C-83.80872559 362.11424316 -84.61745117 362.22848633 -85.45068359 362.34619141 C-123.43798615 367.48578436 -163.74408856 361.48089541 -198 344 C-198.63824707 343.68337402 -199.27649414 343.36674805 -199.93408203 343.04052734 C-215.26018662 335.4226688 -228.98998481 326.10821895 -242 315 C-243.10214844 314.09894531 -243.10214844 314.09894531 -244.2265625 313.1796875 C-245.85818472 311.8340867 -247.43666833 310.42436886 -249 309 C-249 308.34 -249 307.68 -249 307 C-249.85464844 306.64228516 -249.85464844 306.64228516 -250.7265625 306.27734375 C-265.83866539 297.78652305 -277.84140645 274.88515702 -286 260 C-286.33692871 259.39188477 -286.67385742 258.78376953 -287.02099609 258.15722656 C-297.00789364 239.90119694 -303.07368253 220.36936188 -307 200 C-307.23460937 198.78828125 -307.46921875 197.5765625 -307.7109375 196.328125 C-309.20705227 187.61163026 -309.67599347 178.82417784 -310 170 C-310.05414063 168.68515625 -310.10828125 167.3703125 -310.1640625 166.015625 C-311.67312389 112.02696812 -288.25423587 64.39245485 -253.06640625 25.01953125 C-251 23 -251 23 -249 23 C-248.67 22.01 -248.34 21.02 -248 20 C-246.42260742 18.39331055 -246.42260742 18.39331055 -244.41796875 16.69921875 C-243.69270996 16.08481934 -242.96745117 15.47041992 -242.22021484 14.83740234 C-241.48754395 14.23105957 -240.75487305 13.6247168 -240 13 C-239.36916504 12.47486816 -238.73833008 11.94973633 -238.08837891 11.40869141 C-227.52202503 2.7609576 -216.34185555 -4.2726547 -204.33154297 -10.73974609 C-202.37335296 -11.79819393 -200.43662169 -12.88444884 -198.50390625 -13.98828125 C-137.46806781 -47.1350849 -56.10300944 -38.66648694 0 0 Z M-240.8828125 43.69140625 C-270.74121816 76.24918807 -288.20791954 118.48940488 -288.25 162.6875 C-288.25100708 163.41998962 -288.25201416 164.15247925 -288.25305176 164.90716553 C-288.24170329 177.13980863 -287.52267647 188.99553954 -285 201 C-284.86078125 201.66515625 -284.7215625 202.3303125 -284.578125 203.015625 C-280.88377264 219.84545243 -274.15486158 235.88548721 -266 251 C-265.6685498 251.62277832 -265.33709961 252.24555664 -264.99560547 252.88720703 C-260.706618 260.8973678 -255.89487124 268.07724155 -250 275 C-248.66210782 276.66300934 -247.32759441 278.32875836 -246 280 C-242.7091012 278.90303373 -242.03203283 278.15198144 -239.875 275.5625 C-239.25238281 274.83546875 -238.62976563 274.1084375 -237.98828125 273.359375 C-236.68598587 271.8140186 -235.39138719 270.2621354 -234.10546875 268.703125 C-207.93020759 238.0735651 -165.83134336 220.35831434 -126.375 216.375 C-84.16660892 213.35226366 -39.29329849 224.44415826 -6.34375 251.95703125 C-0.3964835 257.14106522 5.49316428 262.34433089 11 268 C11.56460937 268.54269531 12.12921875 269.08539063 12.7109375 269.64453125 C16.37892819 273.19644628 19.34029827 276.63808916 22 281 C31.68539397 271.60654167 38.72207257 260.78148598 44.98144531 248.91845703 C45.90916596 247.17108674 46.87079779 245.44182779 47.8359375 243.71484375 C68.43361994 205.36214545 71.60720841 157.16681717 59.51171875 115.6953125 C56.882359 107.25359012 53.55080894 99.09069624 50 91 C49.57895996 90.03586182 49.57895996 90.03586182 49.14941406 89.05224609 C41.58365198 72.0732684 30.22972921 56.01320337 17 43 C12 38 12 38 10.3515625 36.17578125 C-16.35153288 7.62563382 -59.45379668 -10.67318859 -98.375 -12.12597656 C-153.1978216 -13.24916196 -202.10441723 3.84767045 -240.8828125 43.69140625 Z M-175 251 C-175.63502441 251.28246582 -176.27004883 251.56493164 -176.92431641 251.85595703 C-185.83498846 255.89039998 -193.40151248 260.87352507 -201 267 C-201.91394531 267.71027344 -202.82789063 268.42054688 -203.76953125 269.15234375 C-213.81253957 277.09767079 -223.55393223 285.80419808 -230 297 C-189.70815266 329.10575156 -144.49202705 346.40425052 -92.33886719 341.66748047 C-55.16340834 337.11419903 -21.04727512 321.86008477 7 297 C5.55065657 292.37915212 2.90107561 289.3179104 -0.375 285.875 C-0.90955811 285.3080542 -1.44411621 284.7411084 -1.99487305 284.15698242 C-24.21725644 260.84644831 -51.48220539 245.70317104 -83 239 C-84.03382813 238.773125 -85.06765625 238.54625 -86.1328125 238.3125 C-116.6282805 232.80955841 -147.08336925 238.56531525 -175 251 Z " fill="#010101" transform="translate(367,91)"/>
<path d="M0 0 C16.57517092 14.09113197 26.77106521 33.53513819 29.69140625 55.09765625 C29.80166028 56.57506023 29.88219311 58.05482781 29.94140625 59.53515625 C29.99296875 60.55609375 30.04453125 61.57703125 30.09765625 62.62890625 C30.71988238 85.65127307 22.63892849 107.74465183 6.859375 124.6796875 C-10.5496818 141.52144306 -31.11338396 150.23803841 -55.37109375 150.84765625 C-78.65893151 150.44077728 -100.19214219 141.40160781 -116.7109375 124.8828125 C-133.56534726 106.80540702 -140.69363479 84.18839819 -140.3359375 59.81640625 C-139.49701661 36.8441646 -128.16409408 16.58749178 -111.84765625 0.9375 C-107.54799712 -2.76598791 -103.00734101 -5.70747724 -98.05859375 -8.46484375 C-97.28257812 -8.9134375 -96.5065625 -9.36203125 -95.70703125 -9.82421875 C-90.62102205 -12.57984915 -85.36787599 -14.47277691 -79.87109375 -16.21484375 C-78.87299683 -16.53122803 -78.87299683 -16.53122803 -77.85473633 -16.85400391 C-50.73990645 -25.07102755 -21.60093467 -17.40764978 0 0 Z M-101.91015625 21.50390625 C-106.22922967 26.506694 -109.46605788 31.78989277 -112.43359375 37.66015625 C-112.7672998 38.31669189 -113.10100586 38.97322754 -113.44482422 39.6496582 C-120.51698745 54.21395117 -120.4931344 71.07861651 -115.30859375 86.28515625 C-114.59206309 88.04912445 -113.84174351 89.79973801 -113.05859375 91.53515625 C-112.66027344 92.42589844 -112.26195312 93.31664062 -111.8515625 94.234375 C-104.50714259 109.07137316 -92.07798782 119.79329642 -76.62109375 125.47265625 C-59.58143901 131.19131171 -42.07825768 129.71480154 -25.80859375 122.28515625 C-9.61328187 113.52592711 1.14873092 99.24911743 6.77734375 81.96875 C7.30775939 79.8201823 7.66259871 77.72976988 7.94140625 75.53515625 C8.13863281 74.29958984 8.13863281 74.29958984 8.33984375 73.0390625 C10.36815208 57.5112354 6.08621309 41.20030909 -3.05859375 28.53515625 C-5.90289579 25.03687235 -8.89922098 21.75044712 -12.05859375 18.53515625 C-12.88810547 17.68630859 -12.88810547 17.68630859 -13.734375 16.8203125 C-25.8115429 5.52231673 -41.88740403 1.20231644 -58.01171875 1.3828125 C-74.1546969 2.18996141 -90.84933026 9.74302799 -101.91015625 21.50390625 Z " fill="#010101" transform="translate(311.05859375,141.46484375)"/>
</svg>
