<?xml version="1.0" encoding="UTF-8"?>
<svg version="1.1" xmlns="http://www.w3.org/2000/svg" width="3000" height="3000">
<path d="M0 0 C1.22992172 -0.00701431 2.45984344 -0.01402863 3.72703552 -0.02125549 C7.67481148 -0.03866494 11.62250633 -0.04568953 15.5703125 -0.046875 C16.24290981 -0.04731686 16.91550713 -0.04775871 17.60848618 -0.04821396 C37.80029301 -0.0551715 57.67788601 0.26696842 77.6953125 3.203125 C78.93732422 3.37473145 80.17933594 3.54633789 81.45898438 3.72314453 C158.24388667 14.45806528 230.95453172 43.60510956 293.6953125 89.203125 C294.3047168 89.64527344 294.91412109 90.08742188 295.54199219 90.54296875 C302.8058391 95.83961192 309.7944644 101.44448624 316.6953125 107.203125 C317.70207031 108.03457031 318.70882812 108.86601562 319.74609375 109.72265625 C332.16781605 120.04215249 343.75837931 131.18524052 355.1953125 142.578125 C356.03199463 143.41013428 356.86867676 144.24214355 357.73071289 145.09936523 C362.59184499 149.97317813 367.22721799 154.96805503 371.6953125 160.203125 C372.5409375 161.16734375 373.3865625 162.1315625 374.2578125 163.125 C382.574548 172.77454568 390.17933422 182.92260427 397.6953125 193.203125 C398.2821582 194.00105469 398.86900391 194.79898438 399.47363281 195.62109375 C415.90261153 218.07062989 429.37497416 242.30355369 441.6953125 267.203125 C442.17806641 268.17185547 442.66082031 269.14058594 443.15820312 270.13867188 C471.76762235 328.11776062 486.01849822 393.77181027 487.6953125 458.203125 C487.71867676 459.09241699 487.74204102 459.98170898 487.76611328 460.89794922 C488.64828006 501.05507072 484.17119013 541.18893171 474.6953125 580.203125 C474.44056152 581.26047852 474.18581055 582.31783203 473.92333984 583.40722656 C467.10803146 611.22393979 457.38728818 638.08206169 445.6953125 664.203125 C445.34404297 664.9967041 444.99277344 665.7902832 444.63085938 666.60791016 C431.94868816 695.11758232 415.53208645 722.36189183 396.6953125 747.203125 C396.23930664 747.80930664 395.78330078 748.41548828 395.31347656 749.04003906 C387.55852602 759.3362886 379.49820461 769.33996134 370.8125 778.8671875 C368.90451047 780.97231248 367.04484181 783.10926134 365.1953125 785.265625 C361.24893422 789.79937121 356.97719783 793.98932618 352.6953125 798.203125 C349.9550023 800.92982439 347.23322916 803.67291893 344.53125 806.4375 C338.42368197 812.6595244 332.29509375 818.60429554 325.44140625 824.015625 C322.99634846 825.96332395 320.62754097 827.97738677 318.26904297 830.02832031 C292.06404618 852.7127575 262.04686028 870.34246938 231.60546875 886.63476562 C227.95820347 888.60037235 224.33465418 890.60694597 220.71240234 892.61816406 C213.60883338 896.56198838 206.47261225 900.36640021 199.17797852 903.94360352 C191.59724521 907.69158067 184.18751456 911.75709649 176.75244141 915.78393555 C169.51650243 919.69797284 162.2496931 923.54349779 154.9453125 927.328125 C146.55624293 931.67774639 138.24591648 936.15396411 129.96386719 940.70361328 C123.41779602 944.28958983 116.82211907 947.7689089 110.1953125 951.203125 C100.65265154 956.14937187 91.20531666 961.25389405 81.78125 966.421875 C75.11730135 970.07459431 68.41094416 973.64655995 61.6953125 977.203125 C69.15753342 981.09490529 76.77899806 984.4052478 84.5703125 987.578125 C86.49014611 988.36541162 88.40936252 989.15419077 90.3285675 989.94300842 C91.68084171 990.49871801 93.03329225 991.05399868 94.38591003 991.60887146 C101.60243486 994.57039811 108.80264712 997.57076871 116.0017395 1000.57437134 C118.27369023 1001.52224933 120.54586959 1002.46957726 122.81811523 1003.41674805 C128.21828886 1005.66786345 133.6181143 1007.91981351 139.01794434 1010.17175293 C143.63070276 1012.09541367 148.24359784 1014.01874609 152.85665894 1015.94168091 C154.37081857 1016.57294448 155.88491796 1017.20435255 157.3989563 1017.83590698 C165.15884989 1021.07278058 172.92152269 1024.302198 180.69921875 1027.49609375 C223.68208814 1045.1522507 264.95743431 1065.32248087 301.6953125 1094.203125 C302.80417485 1095.05795707 303.91358128 1095.9120837 305.0234375 1096.765625 C322.12619836 1109.98365996 338.00873432 1124.45180121 353.34088135 1139.67346191 C354.39319032 1140.71772455 355.44697471 1141.76050294 356.50238037 1142.80163574 C362.63265473 1148.85773283 368.36774476 1155.02498861 373.75146484 1161.77124023 C375.77928641 1164.30818203 377.88989838 1166.74777581 380.04052734 1169.17993164 C397.18715348 1188.6375163 411.80908202 1210.73243246 424.6953125 1233.203125 C425.26596436 1234.1921582 425.26596436 1234.1921582 425.84814453 1235.20117188 C459.64506886 1294.0384819 479.66473061 1358.74483487 486.6953125 1426.203125 C486.85217529 1427.7025061 486.85217529 1427.7025061 487.01220703 1429.23217773 C488.14053808 1442.15954124 487.93927248 1455.17546577 487.9453125 1468.140625 C487.94632462 1470.08905304 487.94632462 1470.08905304 487.94735718 1472.07684326 C487.93147105 1491.32221736 487.4392449 1510.13093722 484.6953125 1529.203125 C484.51838867 1530.50169434 484.34146484 1531.80026367 484.15917969 1533.13818359 C472.39143543 1619.17602739 436.76992764 1701.70257639 380.6953125 1768.203125 C380.24720215 1768.73615234 379.7990918 1769.26917969 379.33740234 1769.81835938 C369.17658213 1781.88067995 358.57404728 1793.40154919 347.4453125 1804.578125 C346.70071777 1805.32739258 345.95612305 1806.07666016 345.18896484 1806.84863281 C340.51869709 1811.50540569 335.69246273 1815.9019603 330.6953125 1820.203125 C329.57355485 1821.20091914 328.45369373 1822.20085039 327.3359375 1823.203125 C317.24851768 1832.16724726 306.59653798 1840.25846057 295.6953125 1848.203125 C294.96554199 1848.73824707 294.23577148 1849.27336914 293.48388672 1849.82470703 C272.03621428 1865.50125908 249.04225218 1878.4085698 225.49121094 1890.60839844 C218.96923672 1893.99311155 212.50629504 1897.47050092 206.0703125 1901.015625 C196.89909423 1906.06196516 187.62219185 1910.8866312 178.31268311 1915.67056274 C170.38349127 1919.74753807 162.50301489 1923.89663445 154.6953125 1928.203125 C145.65069661 1933.19185932 136.49719831 1937.95095097 127.31103516 1942.67138672 C119.38239523 1946.74808922 111.50247548 1950.89693197 103.6953125 1955.203125 C94.65069661 1960.19185932 85.49719831 1964.95095097 76.31103516 1969.67138672 C68.38239523 1973.74808922 60.50247548 1977.89693197 52.6953125 1982.203125 C43.65069661 1987.19185932 34.49719831 1991.95095097 25.31103516 1996.67138672 C17.38239523 2000.74808922 9.50247548 2004.89693197 1.6953125 2009.203125 C-7.34930339 2014.19185932 -16.50280169 2018.95095097 -25.68896484 2023.67138672 C-33.61760477 2027.74808922 -41.49752452 2031.89693197 -49.3046875 2036.203125 C-58.34930339 2041.19185932 -67.50280169 2045.95095097 -76.68896484 2050.67138672 C-84.61760477 2054.74808922 -92.49752452 2058.89693197 -100.3046875 2063.203125 C-109.34930339 2068.19185932 -118.50280169 2072.95095097 -127.68896484 2077.67138672 C-135.61760477 2081.74808922 -143.49752452 2085.89693197 -151.3046875 2090.203125 C-160.34930339 2095.19185932 -169.50280169 2099.95095097 -178.68896484 2104.67138672 C-186.61760477 2108.74808922 -194.49752452 2112.89693197 -202.3046875 2117.203125 C-211.34930339 2122.19185932 -220.50280169 2126.95095097 -229.68896484 2131.67138672 C-237.61760477 2135.74808922 -245.49752452 2139.89693197 -253.3046875 2144.203125 C-262.34930339 2149.19185932 -271.50280169 2153.95095097 -280.68896484 2158.67138672 C-288.61760477 2162.74808922 -296.49752452 2166.89693197 -304.3046875 2171.203125 C-313.34930339 2176.19185932 -322.50280169 2180.95095097 -331.68896484 2185.67138672 C-339.61760477 2189.74808922 -347.49752452 2193.89693197 -355.3046875 2198.203125 C-364.34930339 2203.19185932 -373.50280169 2207.95095097 -382.68896484 2212.67138672 C-390.61760477 2216.74808922 -398.49752452 2220.89693197 -406.3046875 2225.203125 C-415.34930339 2230.19185932 -424.50280169 2234.95095097 -433.68896484 2239.67138672 C-441.61760477 2243.74808922 -449.49752452 2247.89693197 -457.3046875 2252.203125 C-466.34930339 2257.19185932 -475.50280169 2261.95095097 -484.68896484 2266.67138672 C-492.61760477 2270.74808922 -500.49752452 2274.89693197 -508.3046875 2279.203125 C-517.34930339 2284.19185932 -526.50280169 2288.95095097 -535.68896484 2293.67138672 C-543.61760477 2297.74808922 -551.49752452 2301.89693197 -559.3046875 2306.203125 C-568.34930339 2311.19185932 -577.50280169 2315.95095097 -586.68896484 2320.67138672 C-594.61760477 2324.74808922 -602.49752452 2328.89693197 -610.3046875 2333.203125 C-619.34930339 2338.19185932 -628.50280169 2342.95095097 -637.68896484 2347.67138672 C-645.61760477 2351.74808922 -653.49752452 2355.89693197 -661.3046875 2360.203125 C-670.34930339 2365.19185932 -679.50280169 2369.95095097 -688.68896484 2374.67138672 C-696.61760477 2378.74808922 -704.49752452 2382.89693197 -712.3046875 2387.203125 C-721.34930339 2392.19185932 -730.50280169 2396.95095097 -739.68896484 2401.67138672 C-747.61760477 2405.74808922 -755.49752452 2409.89693197 -763.3046875 2414.203125 C-772.34906839 2419.1917297 -781.50098671 2423.95392189 -790.68896484 2428.67037964 C-798.63030242 2432.74857662 -806.50067895 2436.92893111 -814.3046875 2441.265625 C-878.67718089 2476.76062624 -952.65602963 2500.12281677 -1026.609375 2500.40625 C-1028.45425758 2500.41677147 -1028.45425758 2500.41677147 -1030.33641052 2500.42750549 C-1034.28418648 2500.44491494 -1038.23188133 2500.45193953 -1042.1796875 2500.453125 C-1042.85228481 2500.45356686 -1043.52488213 2500.45400871 -1044.21786118 2500.45446396 C-1064.41163892 2500.46142218 -1084.28443163 2500.12898518 -1104.3046875 2497.203125 C-1105.52542969 2497.03683594 -1106.74617188 2496.87054687 -1108.00390625 2496.69921875 C-1186.20858887 2485.93710646 -1261.03094585 2455.45567983 -1324.3046875 2408.203125 C-1324.91038574 2407.75195312 -1325.51608398 2407.30078125 -1326.14013672 2406.8359375 C-1334.46660065 2400.60701577 -1342.4327948 2393.99105387 -1350.3046875 2387.203125 C-1351.02140625 2386.58824219 -1351.738125 2385.97335938 -1352.4765625 2385.33984375 C-1354.43492637 2383.64448329 -1356.37258365 2381.92834966 -1358.3046875 2380.203125 C-1359.51705078 2379.12998047 -1359.51705078 2379.12998047 -1360.75390625 2378.03515625 C-1367.57714481 2371.89709646 -1374.11796944 2365.49526711 -1380.6171875 2359.015625 C-1381.46506836 2358.17233643 -1382.31294922 2357.32904785 -1383.18652344 2356.46020508 C-1388.0999148 2351.53472844 -1392.78311479 2346.48856785 -1397.3046875 2341.203125 C-1398.2301295 2340.15479878 -1399.15713056 2339.10784608 -1400.0859375 2338.0625 C-1408.08117794 2328.96280755 -1415.37637322 2319.3915463 -1422.53222656 2309.62255859 C-1423.63903487 2308.11175001 -1424.74971979 2306.60376475 -1425.86621094 2305.10009766 C-1442.50042464 2282.67113282 -1455.98722686 2258.20351735 -1468.3046875 2233.203125 C-1468.80162109 2232.20458496 -1469.29855469 2231.20604492 -1469.81054688 2230.17724609 C-1492.19927517 2184.82077067 -1505.56286011 2134.30294822 -1511.3046875 2084.203125 C-1511.43499359 2083.08754715 -1511.43499359 2083.08754715 -1511.56793213 2081.94943237 C-1513.45284675 2065.3580616 -1513.70416193 2048.82576085 -1513.6796875 2032.140625 C-1513.6795956 2031.46235909 -1513.67950371 2030.78409317 -1513.67940903 2030.08527374 C-1513.67547574 2007.57517113 -1512.78344622 1985.46604581 -1509.3046875 1963.203125 C-1509.11745117 1961.96208008 -1508.93021484 1960.72103516 -1508.73730469 1959.44238281 C-1496.49360105 1879.99576008 -1463.71053749 1802.98525052 -1413.3046875 1740.203125 C-1412.77907227 1739.54747559 -1412.25345703 1738.89182617 -1411.71191406 1738.21630859 C-1405.10323511 1730.00729638 -1398.36983596 1721.96861121 -1391.12353516 1714.3125 C-1389.14905941 1712.22521684 -1387.28558806 1710.1767704 -1385.59765625 1707.84765625 C-1385.17097656 1707.30496094 -1384.74429688 1706.76226563 -1384.3046875 1706.203125 C-1383.6446875 1706.203125 -1382.9846875 1706.203125 -1382.3046875 1706.203125 C-1382.08039063 1705.65269531 -1381.85609375 1705.10226562 -1381.625 1704.53515625 C-1379.89374774 1701.47729352 -1377.68231025 1699.35490674 -1375.1796875 1696.890625 C-1374.6839624 1696.40207031 -1374.1882373 1695.91351562 -1373.67749023 1695.41015625 C-1370.36517271 1692.17016007 -1366.96736538 1689.0663597 -1363.44140625 1686.0625 C-1361.31067214 1684.20833284 -1359.24766242 1682.29122037 -1357.18676758 1680.36010742 C-1350.8144816 1674.41105768 -1344.13650307 1668.99852799 -1337.22363281 1663.69384766 C-1335.2383966 1662.15162726 -1333.28190862 1660.57793066 -1331.328125 1658.99609375 C-1300.54334015 1634.25224551 -1265.35116885 1616.01140262 -1230.40625 1597.95092773 C-1223.78066168 1594.51796155 -1217.21454066 1590.99292337 -1210.6796875 1587.390625 C-1201.1363731 1582.13281889 -1191.47052665 1577.134783 -1181.77655029 1572.16293335 C-1173.55974042 1567.94634393 -1165.38981808 1563.66896344 -1157.3046875 1559.203125 C-1147.89740698 1554.00699434 -1138.36390425 1549.07943965 -1128.80209351 1544.1762085 C-1117.52847494 1538.39192933 -1106.36591074 1532.42734764 -1095.28637695 1526.27783203 C-1093.31304524 1525.20765756 -1091.31818026 1524.19534625 -1089.3046875 1523.203125 C-1096.38359292 1519.51399394 -1103.68686399 1516.45084475 -1111.0546875 1513.390625 C-1112.43052118 1512.81673032 -1113.80625097 1512.24258653 -1115.18188477 1511.66821289 C-1118.82515683 1510.14781568 -1122.46982543 1508.63079508 -1126.11480713 1507.11450195 C-1129.63075569 1505.65124646 -1133.14540799 1504.18488567 -1136.66015625 1502.71875 C-1144.99185579 1499.24409396 -1153.32550746 1495.77413256 -1161.65930176 1492.30450439 C-1166.49689995 1490.29041969 -1171.33440765 1488.27611771 -1176.171875 1486.26171875 C-1177.19078323 1485.83747116 -1178.20969147 1485.41322357 -1179.25947571 1484.97612 C-1184.45166311 1482.81395554 -1189.64326543 1480.65040361 -1194.83374023 1478.48413086 C-1196.86180166 1477.63782274 -1198.88987764 1476.79154948 -1200.91796875 1475.9453125 C-1201.90250534 1475.53448929 -1202.88704193 1475.12366608 -1203.90141296 1474.70039368 C-1209.73069005 1472.27003283 -1215.56709642 1469.85794271 -1221.41015625 1467.4609375 C-1265.69204092 1449.25812169 -1308.12141314 1425.24059102 -1344.38671875 1393.71875 C-1347.20486083 1391.28918708 -1350.08381117 1388.96083597 -1352.9921875 1386.640625 C-1357.62154782 1382.87926974 -1361.79952254 1378.8109005 -1365.96484375 1374.546875 C-1368.0531497 1372.45508273 -1370.18727747 1370.50143964 -1372.4296875 1368.578125 C-1378.55278087 1363.31743915 -1384.07555982 1357.57561189 -1389.33203125 1351.45703125 C-1391.2693915 1349.2434533 -1393.2557024 1347.08095644 -1395.25683594 1344.92504883 C-1420.21983443 1318.00458803 -1440.5998731 1287.26022609 -1458.3046875 1255.203125 C-1458.79437012 1254.32237305 -1459.28405273 1253.44162109 -1459.78857422 1252.53417969 C-1486.3010589 1204.5092569 -1502.37222275 1151.1448402 -1510.6171875 1097.078125 C-1510.76446289 1096.12284912 -1510.91173828 1095.16757324 -1511.06347656 1094.18334961 C-1514.02560995 1073.40159059 -1514.67970207 1052.6039013 -1514.6171875 1031.640625 C-1514.61536469 1030.3669809 -1514.61354187 1029.09333679 -1514.61166382 1027.78109741 C-1514.56584392 1008.73867745 -1514.05635614 990.07094963 -1511.3046875 971.203125 C-1511.12776367 969.93694336 -1510.95083984 968.67076172 -1510.76855469 967.36621094 C-1503.55562825 916.17682336 -1488.26570217 866.1718864 -1464.36767578 820.25976562 C-1463.19156887 817.98426618 -1462.04330383 815.69566385 -1460.89453125 813.40625 C-1443.40078253 778.88507737 -1420.47849883 747.14847037 -1394.44921875 718.56640625 C-1393.07831934 717.0556701 -1391.72015004 715.53321899 -1390.37890625 713.99609375 C-1385.21880516 708.11458047 -1379.7644218 702.55638088 -1374.2421875 697.015625 C-1373.48623291 696.25507812 -1372.73027832 695.49453125 -1371.95141602 694.7109375 C-1367.23021583 690.00257643 -1362.36405573 685.54350659 -1357.3046875 681.203125 C-1356.10153934 680.1460377 -1354.89968883 679.0874714 -1353.69921875 678.02734375 C-1345.79822833 671.09148466 -1337.75862359 664.45637577 -1329.3046875 658.203125 C-1328.31758789 657.46908447 -1328.31758789 657.46908447 -1327.31054688 656.72021484 C-1302.65867974 638.44755894 -1276.52797657 623.3580671 -1249.48233032 608.97117615 C-1242.99127671 605.51263094 -1236.5426482 601.97646789 -1230.11010742 598.41040039 C-1224.99930769 595.59896966 -1219.82512171 592.94504633 -1214.6015625 590.3515625 C-1206.76134056 586.45853128 -1199.02402656 582.39207025 -1191.3046875 578.265625 C-1189.91792271 577.52639233 -1188.53103814 576.78738432 -1187.14404297 576.04858398 C-1184.28013111 574.52284819 -1181.41672201 572.9961754 -1178.55371094 571.46875 C-1172.50703973 568.24358292 -1166.45509634 565.02834564 -1160.40283203 561.81369019 C-1158.41819688 560.75952159 -1156.43370218 559.70508894 -1154.44921875 558.65063477 C-1144.02497859 553.11256851 -1133.59316055 547.58887182 -1123.159729 542.06814575 C-1112.86946617 536.62298788 -1102.58469531 531.1676173 -1092.3046875 525.703125 C-1077.07464838 517.60772472 -1061.83203651 509.53619033 -1046.58691406 501.46923828 C-1040.19998887 498.08949795 -1033.81386106 494.70825147 -1027.42767334 491.32711792 C-1023.88671075 489.45239186 -1020.34569651 487.57776337 -1016.8046875 485.703125 C-1015.38802059 484.95312547 -1013.97135392 484.20312547 -1012.5546875 483.453125 C-998.38802083 475.953125 -984.22135417 468.453125 -970.0546875 460.953125 C-969.00282761 460.39625755 -969.00282761 460.39625755 -967.92971802 459.82814026 C-966.51295062 459.07808753 -965.09618222 458.32803666 -963.67941284 457.57798767 C-960.13927931 455.7038098 -956.59916295 453.82959951 -953.05908203 451.95532227 C-946.66581319 448.57048024 -940.27241839 445.18587722 -933.87838745 441.80247498 C-917.98855279 433.39435387 -902.10222749 424.97973122 -886.22900391 416.5402832 C-884.91308888 415.84065203 -883.59717091 415.14102638 -882.28125 414.44140625 C-881.30437729 413.92203239 -881.30437729 413.92203239 -880.30776978 413.39216614 C-875.50439273 410.83905275 -870.69792461 408.29181192 -865.890625 405.74609375 C-863.11174336 404.27388211 -860.33312023 402.80118367 -857.5546875 401.328125 C-856.88048767 400.97073242 -856.20628784 400.61333984 -855.51165771 400.24511719 C-847.40446742 395.94497568 -839.32865127 391.59469855 -831.3046875 387.140625 C-825.24808656 383.7787086 -819.14510185 380.58130997 -812.92602539 377.53198242 C-805.49312006 373.85697041 -798.21146265 369.89783176 -790.91156006 365.96749878 C-782.78129005 361.59064976 -774.62798496 357.26416116 -766.4296875 353.015625 C-759.12861519 349.22962771 -751.88465922 345.35632039 -744.6796875 341.390625 C-735.50828732 336.34460368 -726.23157593 331.51962346 -716.92205811 326.73568726 C-708.99286627 322.65871193 -701.11238989 318.50961555 -693.3046875 314.203125 C-684.87875911 309.55563983 -676.36260527 305.10076285 -667.8046875 300.703125 C-658.31436491 295.82625197 -648.89569181 290.8429097 -639.55078125 285.69140625 C-631.21917535 281.11575191 -622.77669734 276.76452687 -614.32714844 272.41162109 C-607.30904113 268.78689531 -600.34699164 265.07887885 -593.4296875 261.265625 C-584.34348803 256.25811951 -575.14952839 251.4775108 -565.92297363 246.73614502 C-557.06137203 242.17958228 -548.27747874 237.5021117 -539.55078125 232.69140625 C-532.36209687 228.74343568 -525.09530983 224.95900872 -517.8046875 221.203125 C-509.5819729 216.96691839 -501.40677518 212.66583604 -493.3046875 208.203125 C-484.06026724 203.11120574 -474.7094863 198.24507899 -465.32763672 193.41186523 C-458.30936073 189.78706876 -451.3471512 186.0789668 -444.4296875 182.265625 C-435.34283304 177.25775854 -426.14823647 172.4767379 -416.92095947 167.73513794 C-408.99213558 163.6583445 -401.11203028 159.50941721 -393.3046875 155.203125 C-384.26007161 150.21439068 -375.10657331 145.45529903 -365.92041016 140.73486328 C-357.99177023 136.65816078 -350.11185048 132.50931803 -342.3046875 128.203125 C-333.87875802 123.55563923 -325.36259182 119.10079055 -316.8046875 114.703125 C-307.26798015 109.80227406 -297.80200245 104.79562644 -288.41015625 99.62109375 C-281.59453021 95.87701641 -274.71362939 92.27170601 -267.8046875 88.703125 C-259.95920904 84.65064887 -252.16536462 80.52396479 -244.4296875 76.265625 C-235.06955096 71.11682219 -225.61462997 66.16637279 -216.1171875 61.27587891 C-211.18675739 58.73687606 -206.26025614 56.19769517 -201.38671875 53.55078125 C-140.69558834 20.63890458 -69.22425061 0.26530852 0 0 Z M-156.51245117 172.39013672 C-164.20286843 176.64114816 -171.98854208 180.69042172 -179.8046875 184.703125 C-188.36305381 189.09984831 -196.87879367 193.5556589 -205.3046875 198.203125 C-214.34930339 203.19185932 -223.50280169 207.95095097 -232.68896484 212.67138672 C-240.61760477 216.74808922 -248.49752452 220.89693197 -256.3046875 225.203125 C-265.35061313 230.19258174 -274.50538641 234.95249505 -283.69299316 239.67340088 C-291.53781692 243.70672602 -299.33322719 247.81193004 -307.0546875 252.078125 C-316.21342569 257.13552204 -325.49328052 261.93528008 -334.8046875 266.703125 C-345.08069142 271.96505284 -355.29356913 277.30789125 -365.40234375 282.88671875 C-372.14843138 286.60062823 -378.96266347 290.16943555 -385.8046875 293.703125 C-393.60902512 297.73413338 -401.36123722 301.83934072 -409.0546875 306.078125 C-418.18376689 311.10515109 -427.41947279 315.90807155 -436.68786621 320.6708374 C-444.61687408 324.74772179 -452.49716492 328.89673362 -460.3046875 333.203125 C-469.35061313 338.19258174 -478.50538641 342.95249505 -487.69299316 347.67340088 C-495.53781692 351.70672602 -503.33322719 355.81193004 -511.0546875 360.078125 C-520.92489971 365.52839347 -530.94014501 370.67618551 -540.97485352 375.81433105 C-550.43316987 380.66002099 -559.81835182 385.60622264 -569.12109375 390.74609375 C-576.61286773 394.86825424 -584.19983597 398.79543156 -591.8046875 402.703125 C-601.34142519 407.60391416 -610.80737471 412.61062475 -620.19921875 417.78515625 C-628.06785748 422.1076927 -636.03049521 426.23740538 -644.00683594 430.35693359 C-650.65714206 433.80080557 -657.24800595 437.33462556 -663.8046875 440.953125 C-673.75977486 446.44099634 -683.85673814 451.63342961 -693.97375488 456.81378174 C-703.43243947 461.65965374 -712.81799213 466.6060239 -722.12109375 471.74609375 C-729.61286563 475.86825309 -737.19981237 479.79548068 -744.8046875 483.703125 C-753.36264557 488.10067982 -761.87876239 492.55564164 -770.3046875 497.203125 C-778.73061698 501.85061077 -787.24678318 506.30545945 -795.8046875 510.703125 C-805.34139485 515.60397594 -814.80737255 520.61062356 -824.19921875 525.78515625 C-832.06785748 530.1076927 -840.03049521 534.23740538 -848.00683594 538.35693359 C-854.65714206 541.80080557 -861.24800595 545.33462556 -867.8046875 548.953125 C-877.75977486 554.44099634 -887.85673814 559.63342961 -897.97375488 564.81378174 C-907.43243947 569.65965374 -916.81799213 574.6060239 -926.12109375 579.74609375 C-933.61286563 583.86825309 -941.19981237 587.79548068 -948.8046875 591.703125 C-957.36264557 596.10067982 -965.87876239 600.55564164 -974.3046875 605.203125 C-983.34930339 610.19185932 -992.50280169 614.95095097 -1001.68896484 619.67138672 C-1009.61760477 623.74808922 -1017.49752452 627.89693197 -1025.3046875 632.203125 C-1034.34930339 637.19185932 -1043.50280169 641.95095097 -1052.68896484 646.67138672 C-1060.61760477 650.74808922 -1068.49752452 654.89693197 -1076.3046875 659.203125 C-1084.73061698 663.85061077 -1093.24678318 668.30545945 -1101.8046875 672.703125 C-1111.33907207 677.60278228 -1120.80194503 682.60958565 -1130.19262695 687.78076172 C-1140.18070762 693.26531694 -1150.30861803 698.47736054 -1160.42871094 703.71289062 C-1167.74212354 707.50245518 -1175.02723959 711.34504302 -1182.3046875 715.203125 C-1183.38186035 715.77321289 -1184.4590332 716.34330078 -1185.56884766 716.93066406 C-1216.52317365 733.32468051 -1246.09428781 750.71482528 -1272.3046875 774.203125 C-1272.80484375 774.64688477 -1273.305 775.09064453 -1273.8203125 775.54785156 C-1285.31914903 785.76819903 -1296.68192536 796.44395799 -1306.2109375 808.55078125 C-1308.44140682 811.37631981 -1310.77395696 814.09559192 -1313.1171875 816.828125 C-1342.01689418 851.57021065 -1363.04185797 893.85274279 -1375.3046875 937.203125 C-1375.56588379 938.12561035 -1375.82708008 939.0480957 -1376.09619141 939.99853516 C-1399.85420584 1025.62423881 -1389.11325299 1118.39407347 -1346.3046875 1196.203125 C-1345.66526837 1197.38927105 -1345.02593826 1198.57546511 -1344.38671875 1199.76171875 C-1335.74120836 1215.41212028 -1325.51787499 1230.28727181 -1314.3046875 1244.203125 C-1313.58152344 1245.11835937 -1312.85835937 1246.03359375 -1312.11328125 1246.9765625 C-1297.80554354 1264.84203822 -1281.44043934 1282.2201975 -1263.3046875 1296.203125 C-1262.21574768 1297.10053594 -1261.13001939 1298.00185265 -1260.046875 1298.90625 C-1227.09845492 1326.23608783 -1188.59870385 1343.55945799 -1149.36447144 1359.70344543 C-1142.426558 1362.56051034 -1135.50282046 1365.45132536 -1128.57897949 1368.34228516 C-1107.06167757 1377.3249482 -1085.50863293 1386.22086892 -1063.95288086 1395.11077881 C-1061.45605793 1396.14068662 -1058.95942639 1397.17105649 -1056.46289062 1398.20166016 C-1036.84179956 1406.30129883 -1017.194353 1414.33341713 -997.52087402 1422.30493164 C-993.43022478 1423.96282187 -989.3401658 1425.62216753 -985.25 1427.28125 C-978.75411066 1429.91586874 -972.25815007 1432.55031166 -965.76171875 1435.18359375 C-964.73892319 1435.5983194 -964.73892319 1435.5983194 -963.69546509 1436.02142334 C-961.89889265 1436.74952989 -960.10181105 1437.47637976 -958.3046875 1438.203125 C-957.38776123 1438.59540283 -956.47083496 1438.98768066 -955.52612305 1439.3918457 C-953.22918482 1440.37464704 -953.22918482 1440.37464704 -950.3046875 1440.203125 C-950.6346875 1490.693125 -950.9646875 1541.183125 -951.3046875 1593.203125 C-958.8946875 1597.163125 -966.4846875 1601.123125 -974.3046875 1605.203125 C-980.45682532 1608.66579598 -980.45682532 1608.66579598 -986.59765625 1612.1484375 C-990.18918263 1614.16568596 -993.85660511 1616.0151697 -997.5546875 1617.828125 C-1005.08898716 1621.52354692 -1012.47909451 1625.47491156 -1019.8671875 1629.453125 C-1028.60742055 1634.15914639 -1037.36592222 1638.82314002 -1046.1796875 1643.390625 C-1053.48075981 1647.17662229 -1060.72471578 1651.04992961 -1067.9296875 1655.015625 C-1077.10108768 1660.06164632 -1086.37779907 1664.88662654 -1095.68731689 1669.67056274 C-1103.61650873 1673.74753807 -1111.49698511 1677.89663445 -1119.3046875 1682.203125 C-1128.34930339 1687.19185932 -1137.50280169 1691.95095097 -1146.68896484 1696.67138672 C-1155.50214105 1701.20289501 -1164.23909623 1705.85189434 -1172.91357422 1710.64453125 C-1179.88693608 1714.47815514 -1186.95217154 1718.11726242 -1194.03823853 1721.73596191 C-1235.6444833 1743.01066963 -1277.03332599 1771.45686798 -1306.21875 1808.5625 C-1308.40177745 1811.32603287 -1310.69121726 1813.97477598 -1312.9921875 1816.640625 C-1325.47905732 1831.65966192 -1335.73332825 1848.21989768 -1345.3046875 1865.203125 C-1345.73120605 1865.9569043 -1346.15772461 1866.71068359 -1346.59716797 1867.48730469 C-1371.69964092 1912.23386297 -1387.28012289 1966.4015577 -1387.5078125 2017.8359375 C-1387.51833397 2019.4368927 -1387.51833397 2019.4368927 -1387.52906799 2021.07019043 C-1387.54645439 2024.48954548 -1387.5529189 2027.90872739 -1387.5546875 2031.328125 C-1387.55536224 2032.49607605 -1387.55603699 2033.6640271 -1387.55673218 2034.86737061 C-1387.54141943 2051.52449022 -1387.19936965 2067.76098848 -1384.3046875 2084.203125 C-1384.13839844 2085.22196777 -1383.97210937 2086.24081055 -1383.80078125 2087.29052734 C-1379.37383997 2114.20059172 -1371.81067695 2140.0531837 -1361.3046875 2165.203125 C-1360.74612061 2166.54576416 -1360.74612061 2166.54576416 -1360.17626953 2167.91552734 C-1340.88228816 2213.74415276 -1310.17714262 2256.8046718 -1272.3046875 2289.203125 C-1271.40363281 2289.99332031 -1270.50257813 2290.78351562 -1269.57421875 2291.59765625 C-1234.68647026 2321.96323444 -1194.00773484 2343.60142759 -1150.3046875 2358.203125 C-1149.63969238 2358.4309668 -1148.97469727 2358.65880859 -1148.28955078 2358.89355469 C-1062.7781823 2388.14220388 -968.57536171 2376.58795978 -888.35888672 2337.74853516 C-880.75772892 2334.00382062 -873.30232422 2330.02423286 -865.89331055 2325.91430664 C-858.27302351 2321.69278078 -850.55359405 2317.68108652 -842.8046875 2313.703125 C-834.24629457 2309.30645659 -825.73057914 2304.8505899 -817.3046875 2300.203125 C-808.26007161 2295.21439068 -799.10657331 2290.45529903 -789.92041016 2285.73486328 C-781.99177023 2281.65816078 -774.11185048 2277.50931803 -766.3046875 2273.203125 C-757.26007161 2268.21439068 -748.10657331 2263.45529903 -738.92041016 2258.73486328 C-730.99177023 2254.65816078 -723.11185048 2250.50931803 -715.3046875 2246.203125 C-706.26007161 2241.21439068 -697.10657331 2236.45529903 -687.92041016 2231.73486328 C-679.99177023 2227.65816078 -672.11185048 2223.50931803 -664.3046875 2219.203125 C-655.26007161 2214.21439068 -646.10657331 2209.45529903 -636.92041016 2204.73486328 C-628.99177023 2200.65816078 -621.11185048 2196.50931803 -613.3046875 2192.203125 C-604.26007161 2187.21439068 -595.10657331 2182.45529903 -585.92041016 2177.73486328 C-577.99177023 2173.65816078 -570.11185048 2169.50931803 -562.3046875 2165.203125 C-553.26007161 2160.21439068 -544.10657331 2155.45529903 -534.92041016 2150.73486328 C-526.99177023 2146.65816078 -519.11185048 2142.50931803 -511.3046875 2138.203125 C-502.26007161 2133.21439068 -493.10657331 2128.45529903 -483.92041016 2123.73486328 C-475.99177023 2119.65816078 -468.11185048 2115.50931803 -460.3046875 2111.203125 C-451.26007161 2106.21439068 -442.10657331 2101.45529903 -432.92041016 2096.73486328 C-424.99177023 2092.65816078 -417.11185048 2088.50931803 -409.3046875 2084.203125 C-400.26007161 2079.21439068 -391.10657331 2074.45529903 -381.92041016 2069.73486328 C-373.99177023 2065.65816078 -366.11185048 2061.50931803 -358.3046875 2057.203125 C-349.26007161 2052.21439068 -340.10657331 2047.45529903 -330.92041016 2042.73486328 C-322.99177023 2038.65816078 -315.11185048 2034.50931803 -307.3046875 2030.203125 C-298.26007161 2025.21439068 -289.10657331 2020.45529903 -279.92041016 2015.73486328 C-271.99177023 2011.65816078 -264.11185048 2007.50931803 -256.3046875 2003.203125 C-247.26007161 1998.21439068 -238.10657331 1993.45529903 -228.92041016 1988.73486328 C-220.99177023 1984.65816078 -213.11185048 1980.50931803 -205.3046875 1976.203125 C-196.26007161 1971.21439068 -187.10657331 1966.45529903 -177.92041016 1961.73486328 C-169.99177023 1957.65816078 -162.11185048 1953.50931803 -154.3046875 1949.203125 C-145.26007161 1944.21439068 -136.10657331 1939.45529903 -126.92041016 1934.73486328 C-118.99177023 1930.65816078 -111.11185048 1926.50931803 -103.3046875 1922.203125 C-94.26007161 1917.21439068 -85.10657331 1912.45529903 -75.92041016 1907.73486328 C-67.99177023 1903.65816078 -60.11185048 1899.50931803 -52.3046875 1895.203125 C-43.26007161 1890.21439068 -34.10657331 1885.45529903 -24.92041016 1880.73486328 C-16.99177023 1876.65816078 -9.11185048 1872.50931803 -1.3046875 1868.203125 C7.73992839 1863.21439068 16.89342669 1858.45529903 26.07958984 1853.73486328 C34.00822977 1849.65816078 41.88814952 1845.50931803 49.6953125 1841.203125 C58.73992839 1836.21439068 67.89342669 1831.45529903 77.07958984 1826.73486328 C85.00822977 1822.65816078 92.88814952 1818.50931803 100.6953125 1814.203125 C109.12124308 1809.55563863 117.63742164 1805.10081828 126.1953125 1800.703125 C135.77951652 1795.77772304 145.29746518 1790.75326784 154.73266602 1785.54638672 C160.19001752 1782.5425525 165.69113696 1779.64711139 171.23779297 1776.81176758 C195.48102903 1764.3875691 217.90111097 1749.82428541 238.6953125 1732.203125 C239.72988402 1731.35345419 240.76507473 1730.50453694 241.80078125 1729.65625 C255.11984617 1718.62907681 268.14229211 1706.44786608 278.7109375 1692.72265625 C280.4163273 1690.55734833 282.18078334 1688.51105891 284.01171875 1686.453125 C331.73951795 1632.21353776 360.36472056 1554.0397955 361.6953125 1482.203125 C361.71577637 1481.28772949 361.73624023 1480.37233398 361.75732422 1479.42919922 C362.95153355 1417.93235361 349.39015942 1358.17661951 319.6953125 1304.203125 C319.05589337 1303.01697895 318.41656326 1301.83078489 317.77734375 1300.64453125 C309.13183336 1284.99412972 298.90849999 1270.11897819 287.6953125 1256.203125 C286.97214844 1255.28789063 286.24898437 1254.37265625 285.50390625 1253.4296875 C271.19616854 1235.56421178 254.83106434 1218.1860525 236.6953125 1204.203125 C235.60637268 1203.30571406 234.52064439 1202.40439735 233.4375 1201.5 C212.90195815 1184.46817932 189.76234743 1170.63198061 165.6953125 1159.203125 C164.1165332 1158.4460022 164.1165332 1158.4460022 162.50585938 1157.67358398 C152.71017126 1153.01155585 142.7456482 1148.84366027 132.6953125 1144.765625 C130.98982733 1144.07022362 129.28450873 1143.3744136 127.5793457 1142.67822266 C124.04654074 1141.2362111 120.5130374 1139.79593155 116.97900391 1138.35693359 C109.42143267 1135.27814158 101.87220931 1132.1790239 94.32299805 1129.07980347 C91.87369349 1128.07438171 89.42417898 1127.06947307 86.97460938 1126.06469727 C75.8484625 1121.50047227 64.72703569 1116.92486633 53.60812378 1112.3430481 C45.58254179 1109.03602848 37.55515805 1105.733493 29.5234375 1102.44140625 C28.35370392 1101.96194298 28.35370392 1101.96194298 27.16033936 1101.47279358 C25.56234104 1100.81782112 23.96433889 1100.16285803 22.36633301 1099.50790405 C21.56739624 1099.18045197 20.76845947 1098.85299988 19.9453125 1098.515625 C19.14734253 1098.18857574 18.34937256 1097.86152649 17.52722168 1097.52456665 C4.6531532 1092.24708942 -8.20930163 1086.94186177 -21.06735229 1081.62548828 C-26.85670083 1079.23236751 -32.64718067 1076.84198556 -38.4377594 1074.45184326 C-42.59729318 1072.73477762 -46.75638454 1071.01667947 -50.91357422 1069.29394531 C-54.77081695 1067.69556414 -58.63120618 1066.10495367 -62.4921875 1064.515625 C-63.57790039 1064.06405029 -64.66361328 1063.61247559 -65.78222656 1063.1472168 C-66.75256836 1062.74929932 -67.72291016 1062.35138184 -68.72265625 1061.94140625 C-69.95665161 1061.43154175 -69.95665161 1061.43154175 -71.21557617 1060.91137695 C-73.41056456 1060.04258938 -73.41056456 1060.04258938 -76.3046875 1060.203125 C-75.9746875 1009.713125 -75.6446875 959.223125 -75.3046875 907.203125 C-67.7146875 903.243125 -60.1246875 899.283125 -52.3046875 895.203125 C-46.15254968 891.74045402 -46.15254968 891.74045402 -40.01171875 888.2578125 C-36.42019166 886.24056365 -32.75276246 884.39109543 -29.0546875 882.578125 C-21.60387076 878.9233271 -14.29713158 875.01491899 -6.9921875 871.078125 C2.48590276 865.97088699 11.99891209 860.94659619 21.5703125 856.015625 C30.52021081 851.40234815 39.39028296 846.67133256 48.20849609 841.81176758 C56.42358358 837.30573633 64.74607741 833.01717885 73.07904053 828.73513794 C81.00786442 824.6583445 88.88796972 820.50941721 96.6953125 816.203125 C105.12124198 811.55563923 113.63740818 807.10079055 122.1953125 802.703125 C131.73080812 797.80289676 141.19835862 792.80161499 150.58544922 787.62109375 C156.37859921 784.43459429 162.22309315 781.36764055 168.10668945 778.3515625 C209.30533131 757.21859662 249.01002418 729.19653709 278.6953125 693.203125 C279.13101563 692.6865332 279.56671875 692.16994141 280.015625 691.63769531 C294.84520778 674.0421236 307.40393832 655.23831221 318.6953125 635.203125 C319.12183105 634.4493457 319.54834961 633.69556641 319.98779297 632.91894531 C345.09026555 588.1723877 360.67074904 534.0046918 360.8984375 482.5703125 C360.90545181 481.50296371 360.91246613 480.43561493 360.91969299 479.33592224 C360.9370786 475.91661298 360.94354378 472.49747682 360.9453125 469.078125 C360.94598724 467.91050629 360.94666199 466.74288757 360.94735718 465.53988647 C360.93205464 448.89945472 360.65920747 432.6220712 357.6953125 416.203125 C357.51838867 415.18476562 357.34146484 414.16640625 357.15917969 413.1171875 C350.56339199 375.8435824 339.29626088 339.56444767 320.89794922 306.37304688 C319.72448327 304.25575793 318.56994813 302.1290378 317.41796875 300 C299.32235441 266.85115103 274.43017678 235.75749899 245.6953125 211.203125 C244.75945312 210.38972656 243.82359375 209.57632813 242.859375 208.73828125 C221.99337625 190.70821382 199.20127078 175.81836613 174.6953125 163.203125 C173.77911133 162.73132813 172.86291016 162.25953125 171.91894531 161.7734375 C74.51119536 112.19648779 -40.82084611 114.7771137 -156.51245117 172.39013672 Z " fill="#020202" transform="translate(2013.3046875,249.796875)"/>
<path d="M0 0 C4.13231228 1.37743743 7.16363601 2.48338423 10.8359375 4.5390625 C11.72619629 5.03253174 12.61645508 5.52600098 13.53369141 6.03442383 C14.47132324 6.55931396 15.40895508 7.0842041 16.375 7.625 C22.73618464 11.14263628 29.09192415 14.62415993 35.625 17.8125 C43.40340915 21.62870595 51.0237652 25.72774111 58.6534729 29.831604 C60.48897113 30.81884261 62.32452358 31.80598015 64.16015625 32.79296875 C64.78771317 33.130401 65.41527008 33.46783325 66.06184387 33.81549072 C73.79577363 37.97017013 81.55311153 42.08061792 89.3125 46.1875 C90.3984848 46.76250244 90.3984848 46.76250244 91.50640869 47.34912109 C101.32088446 52.54426089 111.15811857 57.6934359 121.01391602 62.80981445 C128.21545966 66.56106532 135.3371693 70.4485013 142.45214844 74.36083984 C150.88740208 78.97971764 159.42725515 83.38667063 167.97607422 87.79077148 C174.99468758 91.41570935 181.95721718 95.12398228 188.875 98.9375 C197.96185446 103.94536646 207.15645103 108.7263871 216.38372803 113.46798706 C225.1982873 118.00020242 233.93410642 122.65423807 242.61328125 127.44140625 C250.17496956 131.59313848 257.8280408 135.55759665 265.5 139.5 C275.03670735 144.40085094 284.50268505 149.40749856 293.89453125 154.58203125 C300.71015689 158.32610837 307.59105129 161.93143291 314.5 165.5 C322.30432219 169.53103981 330.05654876 173.6362152 337.75 177.875 C346.87907939 182.90202609 356.11478529 187.70494655 365.38317871 192.4677124 C374.19792219 197.00001842 382.93392656 201.65413886 391.61328125 206.44140625 C399.17496853 210.59313792 406.82802882 214.55762152 414.5 218.5 C423.99032259 223.37687303 433.40899569 228.3602153 442.75390625 233.51171875 C449.94259026 237.45968912 457.20937163 241.24412869 464.5 245 C472.68152923 249.21483161 480.81511705 253.49438474 488.875 257.9375 C497.96185446 262.94536646 507.15645103 267.7263871 516.38372803 272.46798706 C525.1982873 277.00020242 533.93410642 281.65423807 542.61328125 286.44140625 C550.17497059 290.59313905 557.8280528 294.55757176 565.5 298.5 C575.06674433 303.41642928 584.56450987 308.43657386 593.98681641 313.62597656 C604.23352008 319.2569615 614.61460181 324.63032612 625 330 C625 331.32 625 332.64 625 334 C624.23671387 334.39155273 623.47342773 334.78310547 622.68701172 335.18652344 C609.12744283 342.15025946 595.60168372 349.14914858 582.25146484 356.50878906 C573.91804098 361.08537905 565.47382782 365.43766157 557.02246094 369.79150391 C550.00435363 373.41622969 543.04230414 377.12424615 536.125 380.9375 C527.03814554 385.94536646 517.84354897 390.7263871 508.61627197 395.46798706 C500.68744808 399.5447805 492.80734278 403.69370779 485 408 C475.95538411 412.98873432 466.80188581 417.74782597 457.61572266 422.46826172 C449.68708273 426.54496422 441.80716298 430.69380697 434 435 C425.57407052 439.64748577 417.05790432 444.10233445 408.5 448.5 C398.96768326 453.39859464 389.50518475 458.40143787 380.11865234 463.57543945 C372.12093193 467.97041666 364.02243555 472.16004353 355.91333008 476.3449707 C349.46256961 479.68567828 343.09749378 483.13599832 336.79859924 486.7538147 C332.43093913 489.24260651 327.99930837 491.54147265 323.48828125 493.7578125 C315.49897352 497.71967938 307.61537178 501.86116521 299.75 506.0625 C298.3593771 506.80321665 296.96866891 507.54377318 295.57788086 508.28417969 C288.90632103 511.83791534 282.24145568 515.4040484 275.58203125 518.98046875 C274.70034271 519.45392731 274.70034271 519.45392731 273.80084229 519.93695068 C270.90115821 521.49410102 268.00152473 523.05134512 265.10205078 524.60888672 C256.44155411 529.25148692 247.73019846 533.79005704 239.0012207 538.30224609 C232.36841155 541.74069942 225.79418655 545.2710685 219.25 548.875 C210.12146518 553.90147171 200.88651192 558.70417024 191.61883545 563.46670532 C182.75704964 568.02335869 173.97297111 572.70091414 165.24609375 577.51171875 C156.91448785 582.08737309 148.47200984 586.43859813 140.02246094 590.79150391 C133.00435363 594.41622969 126.04230414 598.12424615 119.125 601.9375 C110.65677306 606.60443396 102.09916033 611.08100643 93.5 615.5 C83.96563062 620.39968818 74.50274354 625.40646006 65.11206055 630.57763672 C55.14864618 636.04864743 45.04591208 641.24787859 34.95068359 646.47021484 C30.50070849 648.77730933 26.06105363 651.10376947 21.625 653.4375 C20.85591309 653.84162109 20.08682617 654.24574219 19.29443359 654.66210938 C14.13252339 657.38213068 9.01434053 660.1697484 3.93359375 663.0390625 C2 664 2 664 0 664 C0 444.88 0 225.76 0 0 Z " fill="#020202" transform="translate(1249,1168)"/>
</svg>
